<svg xml:space="preserve" viewBox="0 0 110 110" y="0px" x="0px" version="1.1" xmlns:xlink="http://www.w3.org/1999/xlink" xmlns="http://www.w3.org/2000/svg" fill="#000000" width="300px" height="300px"><g><path d="M86.32,77.886l-3.857-4.698l-3.214,3.022l9.128,11.121l9.059-11.041l-3.215-3.024l-3.859,4.705V52.979H67.123L55,40.855   L42.876,52.979H19.637v24.91l-3.858-4.701l-3.214,3.023l9.126,11.121l9.06-11.043l-3.214-3.023l-3.858,4.705V57.021h19.196   L55,69.146l12.125-12.125H86.32V77.886z M55,63.489l-8.489-8.488L55,46.512l8.488,8.489L55,63.489z"></path><path d="M5.492,104.508h32.332V88.342H5.492V104.508z M9.492,92.342h24.332v8.166H9.492V92.342z"></path><path d="M72.176,88.342v16.166h32.332V88.342H72.176z M100.508,100.508H76.176v-8.166h24.332V100.508z"></path><path d="M52.979,30.4l-3.858-4.701l-3.214,3.026l9.127,11.12l9.06-11.04l-3.213-3.025l-3.859,4.702v-8.824h14.146V5.492h-0.001   H38.834v16.166h14.145V30.4z M42.834,17.658V9.492h24.332v8.166H57.021h-4h-0.042H42.834z"></path></g></svg>